<svg xmlns="http://www.w3.org/2000/svg" width="446" height="446" viewBox="0 0 446 446"><path d="M0 0L446 0 446 172C439 172 432 172 425 171 420 171 415 172 411 173 404 176 397 171 390 171 390 171 389 172 389 173 391 175 393 177 395 179 389 184 382 190 373 190 368 190 363 191 358 191 357 193 357 195 356 197 353 191 357 184 359 177 362 167 368 158 370 147 370 143 370 139 372 136 373 133 377 132 379 131 380 126 380 121 383 118 382 114 381 111 379 108 376 107 374 106 371 106 373 110 377 115 374 120 373 126 367 127 363 129 362 131 362 132 362 134 361 131 359 129 357 126 356 127 354 128 352 128 350 125 350 121 346 120 340 118 333 117 327 114 332 113 336 113 340 112 335 109 329 110 324 106 329 106 334 107 339 107 342 108 345 107 346 104 346 101 346 98 346 96 342 98 339 101 335 102 335 99 336 96 336 94 333 96 330 98 328 100 327 97 327 94 328 92 329 88 332 86 333 84 335 81 335 79 335 76 330 80 326 85 321 89 322 86 323 82 324 79 319 83 317 89 314 93 313 91 311 89 310 87 308 89 306 91 304 94 301 86 305 77 301 70 300 79 298 88 295 96 294 95 294 93 293 91 293 87 295 83 294 80 294 75 293 71 292 66 291 71 290 75 289 80 288 86 289 93 284 98 286 100 287 101 288 103 287 103 286 104 286 104L285 104 285 103C283 102 282 101 281 101 282 98 283 95 285 93 284 90 284 88 283 85 284 82 284 80 284 77 280 80 278 84 276 89 274 90 272 91 271 92 271 90 272 88 273 86 270 89 267 92 264 95 265 91 267 87 270 84 273 80 273 75 273 70 272 70 271 70 270 70 270 74 269 77 269 81 267 80 266 79 265 78 264 81 263 84 261 86 260 86 259 85 258 84 260 81 261 78 262 75 258 76 254 78 250 78 247 73 244 67 245 61 246 58 246 55 246 52 245 52 243 52 242 52 241 55 241 58 240 60 239 60 237 61 235 60 232 57 230 55 226 54 228 58 231 65 237 64 239 68 242 72 245 76 247 81 245 86 244 90 242 87 241 84 241 81 240 78 239 75 237 73 237 76 237 80 238 83 238 84 238 85 238 86 237 86 235 85 233 84 232 81 232 78 231 76 230 79 228 82 227 85 226 85 225 85 224 85 225 80 226 75 227 71 225 73 223 76 221 80 218 77 216 73 214 70 213 72 213 74 213 76 211 75 210 73 208 72 210 75 212 78 212 82 210 81 208 80 206 78 206 80 206 82 206 83 203 82 199 82 196 83 198 85 199 86 201 88 198 88 195 87 192 87 192 88 192 89 192 90 190 89 187 89 185 88 185 84 183 81 182 79 181 83 182 88 180 93 177 90 176 86 174 83 172 84 171 84 169 85 165 84 160 83 156 83 151 82 146 81 141 80 144 83 147 84 151 85 157 87 163 89 169 91 166 94 161 94 157 94 153 92 150 89 147 89 144 88 141 89 138 89 138 90 138 90 138 91 137 91 135 92 134 92 136 93 138 94 140 94 143 95 145 94 148 94 151 95 153 97 156 99 155 101 154 104 152 105 149 107 145 107 141 107 140 105 138 103 136 101 134 99 132 100 130 100 133 106 139 108 145 110 142 112 140 114 137 114 133 113 130 111 125 110 128 116 135 116 140 115 136 118 132 119 129 122 126 124 124 128 123 132 121 136 119 139 118 143 120 149 121 155 122 161 125 159 128 156 132 156 133 159 133 161 133 164 134 167 135 169 134 172 134 175 133 178 131 181 133 180 134 178 135 177 135 180 134 183 134 186 136 189 139 190 141 191 146 186 147 179 149 173 151 176 152 179 153 182 151 186 147 189 146 194 144 199 144 205 145 211 145 214 146 216 148 218 154 223 162 225 169 228 171 229 174 231 177 231 178 230 180 228 181 226 186 222 193 220 199 219 201 219 202 220 204 220 197 221 190 222 184 226 179 230 181 238 181 244L181 244C180 244 180 242 179 242 177 238 172 238 169 236 164 233 161 230 156 227 154 225 152 224 150 222 149 222 149 222 149 222 147 221 146 220 144 220 140 234 141 249 144 263 145 272 147 282 149 291 151 298 152 306 155 314 159 325 165 335 172 344 177 349 181 355 187 359 194 365 202 369 208 375 211 377 214 380 217 382 217 383 217 384 217 385 213 382 209 379 205 376 193 367 180 359 171 347 166 339 161 332 157 324 151 313 149 299 145 287 142 287 139 288 136 288 136 300 136 311 136 323 137 331 139 338 142 345 147 356 148 368 154 379 156 384 158 387 161 391 153 385 149 376 146 366 144 359 143 351 139 345 139 353 141 361 144 368 149 386 161 401 177 409 177 410 177 411 177 412 171 409 167 405 162 401 156 397 153 391 149 386 144 377 141 367 139 357 137 349 137 340 135 332 132 323 132 313 132 303 127 321 131 340 135 358 137 370 142 381 147 393 148 397 151 402 153 406 155 413 159 420 162 426 164 433 166 439 168 446L166 446C161 436 159 425 153 415 147 406 144 396 140 386 138 392 141 399 139 404 138 397 139 389 137 382 136 377 134 372 132 367 129 358 129 349 127 340 126 331 125 321 126 312 126 302 131 293 129 283 127 279 124 275 121 271 118 268 119 263 117 258 114 252 113 246 109 240 98 243 87 248 76 249 84 240 97 243 106 235 105 229 103 223 104 217 105 212 107 208 108 203 106 204 105 206 103 207 98 193 101 179 101 165 102 160 100 156 100 152 103 149 107 147 106 143 107 138 101 135 101 130 101 125 103 120 106 116 101 114 96 111 90 111 90 118 84 123 82 130 78 140 74 150 74 160 74 166 72 171 71 176 70 183 70 189 70 195 71 196 73 196 75 197 75 198 75 198 75 199 72 201 68 202 66 205 65 209 63 212 61 215 58 220 59 227 56 232 53 236 52 240 51 245 56 249 58 256 60 262 62 260 64 259 66 257 68 257 69 258 71 258 63 267 53 276 48 287 44 295 40 302 36 309 33 315 32 323 26 327 21 332 16 335 11 340 8 344 4 347 0 350L0 0M268 52C268 56 268 59 268 62 269 62 269 61 270 61 270 58 271 54 268 52M169 59C172 63 174 68 175 73 176 72 177 71 177 69 178 70 179 71 179 72 179 69 179 65 179 62 176 62 173 60 171 58 170 58 169 59 169 59M275 81C280 78 279 72 279 67 276 71 276 76 275 81M112 120C110 121 110 123 110 125 114 124 117 121 117 117 115 118 114 119 112 120M120 209C120 210 119 212 120 214 123 216 126 218 129 219 128 214 125 211 120 209M114 213C112 214 110 216 110 218 108 223 111 228 113 232 115 238 117 245 119 251 122 260 126 268 130 276 131 279 133 282 135 284 138 285 142 285 143 282 143 277 141 273 141 269 140 265 140 260 139 256 138 249 139 242 136 236 134 231 132 227 130 223 128 220 125 219 122 218 123 227 121 237 124 246 125 250 129 253 131 257 133 260 133 264 135 268 133 266 131 263 130 261 129 256 124 252 122 247 120 241 119 234 119 227 119 224 120 220 119 217 118 216 116 214 114 213Z" fill="#0b0a06"/><path d="M242 52C243 52 245 52 246 52 246 55 246 58 245 61 244 67 247 73 250 78 254 78 258 76 262 75 261 78 260 81 258 84 259 85 260 86 261 86 263 84 264 81 265 78 266 79 267 80 269 81 269 77 270 74 270 70 271 70 272 70 273 70 273 75 273 80 270 84 267 87 265 91 264 95 267 92 270 89 273 86 272 88 271 90 271 92 272 91 274 90 276 89 278 87 281 86 283 85 284 88 284 90 285 93 283 95 282 98 281 101 282 101 283 102 285 103 281 103 277 104 274 105 277 107 280 109 283 111 287 112 291 114 295 115 297 116 298 116 300 117 295 117 289 115 284 113 277 110 271 106 263 105 263 102 262 100 262 97 261 98 259 99 258 99 254 99 250 96 245 96 240 98 235 100 230 100 228 100 226 99 224 99 223 98 222 97 222 97 227 98 233 98 239 96 234 94 230 94 225 93 219 92 213 90 206 91 201 92 197 93 193 97 190 96 186 95 183 93 184 91 184 90 185 88 187 89 190 89 192 90 192 89 192 88 192 87 195 87 198 88 201 88 199 86 198 85 196 83 199 82 203 82 206 83 206 82 206 80 206 78 208 80 210 81 212 82 212 78 210 75 208 72 210 73 211 75 213 76 213 74 213 72 214 70 216 73 218 77 221 80 223 76 225 73 227 71 226 75 225 80 224 85 225 85 226 85 227 85 228 82 230 79 231 76 232 78 232 81 233 84 235 85 237 86 238 86 238 85 238 84 238 83 239 83 240 82 241 81 241 84 242 87 244 90 245 86 247 81 245 76 242 72 239 68 237 64 231 65 228 58 226 54 230 55 232 57 235 60 237 61 239 60 240 60 241 58 241 55 242 52Z" fill="#191009"/><path d="M268 52C271 54 270 58 270 61 269 61 269 62 268 62 268 59 268 56 268 52Z" fill="#3c3227"/><path d="M169 59C169 59 170 58 171 58 173 60 176 62 179 62 179 65 179 69 179 72 179 71 178 70 177 69 177 71 176 72 175 73 174 68 172 63 169 59Z" fill="#3c271b"/><path d="M275 81C276 76 276 71 279 67 279 72 280 78 275 81Z" fill="#39261d"/><path d="M289 80C290 75 291 71 292 66 293 71 294 75 294 80 295 83 293 87 293 91 294 93 294 95 295 96 298 88 300 79 301 70 305 77 301 86 304 94 306 91 308 89 310 87 311 89 313 91 314 93 317 89 319 83 324 79 323 82 322 86 321 89 326 85 330 80 335 76 335 79 335 81 333 84 332 86 329 88 328 92 327 94 327 97 328 100 330 98 333 96 336 94 336 96 335 99 335 102 339 101 342 98 346 96 346 98 346 101 346 104 345 107 342 108 339 107 334 107 329 106 324 106 329 110 335 109 340 112 336 113 332 113 327 114 333 117 340 118 346 120 350 121 350 125 352 128 354 128 356 127 357 126 359 129 361 131 362 134 363 139 364 144 362 149 360 144 359 138 357 132 355 132 353 132 351 132 352 136 352 140 353 143 351 142 350 141 348 140 345 142 341 144 337 145 335 142 334 138 331 135 331 135 330 134 330 134 328 132 325 131 324 128 323 124 322 120 318 117 321 117 324 116 327 116 325 115 322 114 320 114 322 113 324 113 327 112 325 110 324 108 322 105 320 105 318 105 316 105 318 106 320 108 322 109 315 111 307 110 300 111 294 111 290 107 286 104 286 104 287 103 288 103 287 101 286 100 284 98 289 93 288 86 289 80Z" fill="#1b1209"/><path d="M237 73C239 75 240 78 241 81 240 82 239 83 238 83 237 80 237 76 237 73Z" fill="#603b28"/><path d="M276 89C278 84 280 80 284 77 284 80 284 82 283 85 281 86 278 87 276 89Z" fill="#4f301f"/><path d="M182 79C183 81 185 84 185 88 184 90 184 91 183 93 186 95 190 96 193 97 197 93 201 92 206 91 213 90 219 92 225 93 230 94 234 94 239 96 233 98 227 98 222 97 222 97 223 98 224 99 221 99 219 101 217 103 215 101 212 99 208 99 209 100 210 101 211 103 208 102 204 100 201 101 200 102 200 102 199 103 195 105 190 105 185 104 185 106 184 108 184 109 181 110 179 110 176 111 175 110 173 109 172 109 172 108 173 107 174 107 174 104 174 102 174 99 176 101 178 102 180 103 179 101 178 100 177 98 178 96 180 95 180 93 182 88 181 83 182 79Z" fill="#472a1b"/><path d="M141 80C146 81 151 82 156 83 154 84 152 85 151 85 147 84 144 83 141 80Z" fill="#704d40"/><path d="M156 83C160 83 165 84 169 85 171 84 172 84 174 83 176 86 177 90 180 93 180 95 178 96 177 98 178 100 179 101 180 103 178 102 176 101 174 99 174 102 174 104 174 107 173 107 172 108 172 109 173 109 175 110 176 111 174 111 172 112 169 112 166 113 163 114 160 115 156 117 155 121 154 124 150 135 154 147 153 158 152 155 151 153 150 150 149 152 146 154 147 157 148 160 150 163 153 164 153 164 153 165 153 166 152 171 153 176 154 181 154 182 153 182 153 182 152 179 151 176 149 173 147 179 146 186 141 191 139 190 136 189 134 186 134 183 135 180 135 177 134 178 133 180 131 181 133 178 134 175 134 172 135 169 134 167 133 164 135 160 136 154 141 154 141 150 141 146 141 142 139 145 137 148 134 151 135 148 136 145 136 142 134 145 131 148 128 151 130 153 131 154 132 156 128 156 125 159 122 161 121 155 120 149 118 143 123 141 122 136 123 132 124 128 126 124 129 122 132 119 136 118 140 115 135 116 128 116 125 110 130 111 133 113 137 114 140 114 142 112 145 110 139 108 133 106 130 100 132 100 134 99 136 101 138 103 140 105 141 107 145 107 149 107 152 105 154 104 155 101 156 99 154 97 152 95 150 93 152 93 154 94 157 94 161 94 166 94 169 91 163 89 157 87 151 85 152 85 154 84 156 83M144 160C145 156 145 151 145 147 143 151 143 156 144 160Z" fill="#130e07"/><path d="M138 89C141 89 144 88 147 89 150 89 153 92 157 94 154 94 152 93 150 93 152 95 154 97 156 99 153 97 151 95 148 94 145 94 143 95 140 94 138 94 136 93 134 92 135 92 137 91 138 91 138 90 138 90 138 89Z" fill="#4b392b"/><path d="M230 100C235 100 240 98 245 96 250 96 254 99 258 99 259 99 261 98 262 97 262 100 263 102 263 105 262 106 261 107 260 107 264 110 268 113 272 115 276 116 280 115 285 115 284 114 284 113 284 113 289 115 295 117 300 117 298 116 297 116 295 115 298 115 301 115 304 115 304 116 304 117 304 118 301 118 297 118 294 118 288 118 282 119 276 118 271 118 267 115 263 113 257 110 250 107 244 103 244 105 245 106 245 108 240 104 234 105 230 100Z" fill="#562f1d"/><path d="M208 99C212 99 215 101 217 103 219 101 221 99 224 99 226 99 228 100 230 100 234 105 240 104 245 108 245 106 244 105 244 103 250 107 257 110 263 113 263 113 262 113 262 112 262 114 263 115 263 117 259 114 254 110 249 112 247 114 246 117 245 119 243 117 241 114 240 111 236 110 232 110 228 110 223 111 219 113 214 113 214 112 214 110 214 109 207 109 200 111 194 109 196 107 199 106 201 105 200 104 199 103 199 103 200 102 200 102 201 101 204 100 208 102 211 103 210 101 209 100 208 99M212 103C214 106 215 109 216 112 216 111 217 109 217 107 216 106 214 105 212 103Z" fill="#b1694e"/><path d="M185 104C190 105 195 105 199 103 199 103 200 104 201 105 199 106 196 107 194 109 200 111 207 109 214 109 214 110 214 112 214 113 205 113 197 113 188 115 189 117 191 119 192 121 192 125 191 129 191 133 191 145 192 157 193 169 193 177 193 185 195 193 189 197 183 199 177 200 174 197 170 195 167 193 166 186 163 179 164 172 165 165 163 159 163 152 164 147 164 141 163 136 162 131 160 126 162 121 163 120 165 118 166 117 167 115 168 114 169 112 172 112 174 111 176 111 179 110 181 110 184 109 184 108 185 106 185 104Z" fill="#cc785a"/><path d="M274 105C277 104 281 103 285 103L285 104C285 104 285 105 285 106 286 107 287 108 288 109 286 109 285 110 283 111 280 109 277 107 274 105Z" fill="#512e1f"/><path d="M212 103C214 105 216 106 217 107 217 109 216 111 216 112 215 109 214 106 212 103Z" fill="#793e28"/><path d="M285 104L286 104C290 107 294 111 300 111 307 111 313 113 320 114 322 114 325 115 327 116 324 116 321 117 318 117 322 120 323 124 324 128 325 131 328 132 330 134 331 145 331 157 330 168 329 177 331 186 329 195 327 195 325 195 323 195 317 195 311 194 305 196 305 196 304 197 304 198L304 198C308 199 312 200 316 201 308 202 300 200 293 199 296 202 300 204 304 204 311 205 319 205 326 203 327 204 328 204 329 205 330 208 330 212 330 216 328 216 326 216 325 216 324 216 323 216 322 216 321 214 319 212 317 211 314 210 311 211 308 211 312 212 315 214 319 216 317 216 315 216 313 216 309 213 304 211 299 211 300 210 302 210 303 209 296 207 289 211 284 215 282 217 279 218 280 221 279 223 279 224 278 225 279 226 280 226 281 226 274 229 267 227 260 228L260 227C265 227 270 228 275 227 277 223 277 218 280 215 281 213 282 212 283 211 279 213 276 215 274 219 274 218 274 217 274 216 275 213 275 210 277 207 280 204 284 202 288 200 292 196 299 194 305 193 307 194 309 194 312 194 315 194 319 194 322 193 320 192 318 190 315 189 315 175 315 162 315 149 315 145 312 142 310 138 312 139 313 140 315 140 315 133 316 126 316 118 314 118 312 118 311 118 309 118 306 118 304 118 304 117 304 116 304 115 301 115 298 115 295 115 291 114 287 112 283 111 285 110 286 109 288 109 287 108 286 107 285 106 285 105 285 104 285 104Z" fill="#975037"/><path d="M260 107C261 107 262 106 263 105 271 106 277 110 284 113 284 113 284 114 285 115 280 115 276 116 272 115 268 113 264 110 260 107Z" fill="#ac634a"/><path d="M316 105C318 105 320 105 322 105 324 108 325 110 327 112 324 113 322 113 320 114 313 113 307 111 300 111 307 110 315 111 322 109 320 108 318 106 316 105Z" fill="#5c3621"/><path d="M371 106C374 106 376 107 379 108 381 111 382 114 383 118 380 121 380 126 379 131 377 132 373 133 372 136 370 139 370 143 370 147 368 158 362 167 359 177 357 184 353 191 356 197 357 195 357 193 358 191 363 191 368 190 373 190 382 190 389 184 395 179 393 177 391 175 389 173 389 172 390 171 390 171 397 171 404 176 411 173 415 172 420 171 425 171 432 172 439 172 446 172L446 323C445 324 444 325 443 326 441 322 441 318 438 314 431 308 421 308 413 303 409 301 405 297 402 294 401 297 399 300 401 303 404 307 407 309 410 313 417 321 421 330 426 339 431 347 433 357 437 366 440 373 443 380 446 388L446 406C442 399 441 392 438 385 434 376 432 366 429 357 421 338 412 319 396 305 388 297 378 290 367 286 362 285 357 283 353 285 349 287 349 292 347 296 344 309 339 321 334 333 332 339 329 344 326 350 320 361 315 373 307 384 303 389 297 392 291 394 291 400 292 406 292 412 292 418 292 425 293 432 293 436 294 441 294 446L289 446C289 444 289 443 289 441 290 437 290 433 290 429 290 421 290 413 289 406 289 403 288 400 287 397 285 403 287 410 287 417 287 426 286 436 286 445L286 446 284 446C284 435 286 425 285 414 285 409 284 404 284 399 284 398 284 397 284 396 282 396 281 396 279 396 274 396 268 396 263 396 261 396 258 397 256 398 252 400 249 403 245 405 232 413 216 415 201 413 187 410 173 404 163 393 167 396 171 398 175 400 179 404 184 407 190 408 198 410 205 412 213 411 221 410 228 409 235 407 241 404 247 400 251 396 247 395 242 395 237 394 230 392 223 389 217 385 217 384 217 383 217 382 221 384 224 386 228 387 234 390 241 388 247 388 256 388 265 388 274 386 283 384 289 377 295 371 300 364 303 355 309 349 312 344 315 339 317 333 317 332 318 331 318 331 324 322 327 311 329 301 333 294 334 286 336 278 338 271 337 264 337 258 335 257 334 256 332 255 336 254 341 253 344 249 347 244 348 238 349 232 350 230 349 227 348 225 346 233 346 241 341 248 340 251 336 252 333 253 333 243 334 232 333 222 333 221 333 220 333 219 334 218 334 217 334 217 336 212 336 207 336 202 332 202 329 203 326 203 319 205 311 205 304 204 303 203 303 203 302 203 306 202 311 202 316 201 321 201 326 202 331 199 322 196 313 199 304 198 304 197 305 196 305 196 311 194 317 195 323 195 327 196 332 197 335 200 336 195 336 191 335 187 335 181 336 176 336 171 336 159 332 147 331 135 334 138 335 142 337 145 341 144 345 142 348 140 350 141 351 142 353 143 352 140 352 136 351 132 353 132 355 132 357 132 359 138 360 144 362 149 364 144 363 139 362 134 362 132 362 131 363 129 367 127 373 126 374 120 377 115 373 110 371 106M335 305C333 312 331 319 328 326 324 337 318 347 312 358 306 366 302 375 295 382 291 386 285 387 280 390 291 392 302 385 307 375 313 364 320 352 325 340 327 336 330 332 331 328 333 320 338 313 340 304 341 302 340 300 340 299 338 301 336 303 335 305Z" fill="#060602"/><path d="M90 111C96 111 101 114 106 116 103 120 101 125 101 130 101 135 107 138 106 143 107 147 103 149 100 152 100 156 102 160 101 165 101 179 98 193 103 207 105 206 106 204 108 203 107 208 105 212 104 217 103 223 105 229 106 235 97 243 84 240 76 249 87 248 98 243 109 240 113 246 114 252 117 258 119 263 118 268 121 271 124 275 127 279 129 283 126 282 123 283 120 282 115 277 115 269 112 262 111 264 109 266 108 268 107 267 105 267 104 267 103 268 103 270 102 271 99 272 95 272 92 273 89 277 85 281 86 286 82 290 79 295 78 301 76 306 78 312 76 317 74 318 72 318 69 319 69 323 67 327 68 331 68 336 72 340 73 345 74 347 73 349 72 351 67 345 65 336 61 328 61 337 59 346 62 354 64 360 67 366 68 372 61 363 59 351 56 340 55 339 54 338 52 337 50 341 48 344 45 347 44 344 42 341 41 339 38 342 35 344 34 348 34 352 35 356 36 359 34 359 31 358 30 360 27 363 30 366 31 369 29 371 27 372 26 374 22 372 19 370 15 368 13 370 12 373 10 374 7 376 3 376 0 377L0 350C4 347 8 344 11 340 16 335 21 332 26 327 32 323 33 315 36 309 40 302 44 295 48 287 53 276 63 267 71 258 69 258 68 257 66 257 64 259 62 260 60 262 58 256 56 249 51 245 52 240 53 236 56 232 59 227 58 220 61 215 63 212 65 209 66 205 68 202 72 201 75 199 75 198 75 198 75 197 73 196 71 196 70 195 70 189 70 183 71 176 72 171 74 166 74 160 74 150 78 140 82 130 84 123 90 118 90 111Z" fill="#13130c"/><path d="M214 113C219 113 223 111 228 110 232 110 236 110 240 111 241 114 243 117 245 119 246 117 247 114 249 112 254 110 259 114 263 117 263 115 262 114 262 112 262 113 263 113 263 113 267 115 271 118 276 118 282 119 288 118 294 118 297 118 300 119 303 119 301 120 299 122 297 122 294 122 291 121 287 120 286 122 284 124 283 125 281 125 280 125 279 124 276 124 274 124 271 124 274 127 274 130 276 134 279 136 282 136 286 137 285 138 284 140 283 141 285 144 288 147 287 150 286 156 285 162 282 167 281 171 280 175 279 179 278 181 276 182 274 183 272 188 270 193 265 195 259 195 253 193 247 192 245 192 244 190 243 189 240 188 237 188 234 188 236 189 239 191 241 193 240 193 239 194 239 195 234 195 229 195 224 193 217 191 210 195 203 194 200 194 197 193 195 193 193 185 193 177 193 169 192 157 191 145 191 133 191 129 192 125 192 121 191 119 189 117 188 115 197 113 205 113 214 113Z" fill="#e89271"/><path d="M160 115C163 114 166 113 169 112 168 114 167 115 166 117 164 116 162 116 160 115Z" fill="#834e37"/><path d="M154 124C155 121 156 117 160 115 162 116 164 116 166 117 165 118 163 120 162 121 157 125 157 132 157 138 156 140 155 142 155 144 154 149 156 153 155 157 155 160 154 163 153 166 153 165 153 164 153 164 150 163 148 160 147 157 146 154 149 152 150 150 151 153 152 155 153 158 154 147 150 135 154 124Z" fill="#4b2f1e"/><path d="M112 120C114 119 115 118 117 117 117 121 114 124 110 125 110 123 110 121 112 120Z" fill="#6d5641"/><path d="M294 118C297 118 301 118 304 118 306 118 309 118 311 118 308 125 309 133 309 140 309 150 309 160 309 170 309 175 308 181 308 186 308 189 310 192 312 194 309 194 307 194 305 193 305 177 305 160 305 143 305 135 304 127 305 119 305 119 304 119 303 119 300 119 297 118 294 118Z" fill="#c56e51"/><path d="M311 118C312 118 314 118 316 118 316 126 315 133 315 140 313 140 312 139 310 138 312 142 315 145 315 149 315 162 315 175 315 189 318 190 320 192 322 193 319 194 315 194 312 194 310 192 308 189 308 186 308 181 309 175 309 170 309 160 309 150 309 140 309 133 308 125 311 118Z" fill="#b05d43"/><path d="M303 119C304 119 305 119 305 119 304 127 305 135 305 143 305 160 305 177 305 193 299 194 292 196 288 200 284 202 280 204 277 207 275 210 275 213 274 216 274 218 273 219 273 221 271 221 270 221 269 221 271 215 274 209 273 203 268 203 263 204 258 203 255 200 254 197 250 195 250 195 249 195 249 195 248 197 246 199 245 201 245 199 245 197 245 195 245 195 244 195 243 195 243 198 242 201 242 204 241 201 240 198 239 195 239 194 240 193 241 193 239 191 236 189 234 188 237 188 240 188 243 189 244 190 245 192 247 192 253 193 259 195 265 195 270 193 272 188 274 183 276 182 278 181 279 179 280 175 281 171 282 167 285 162 286 156 287 150 288 147 285 144 283 141 284 140 285 138 286 137 282 136 279 136 276 134 274 130 274 127 271 124 274 124 276 124 279 124 280 129 287 127 290 127 288 126 285 126 283 125 284 124 286 122 287 120 291 121 294 122 297 122 299 122 301 120 303 119Z" fill="#e28c6b"/><path d="M157 138C157 132 157 125 162 121 160 126 162 131 163 136 164 141 164 147 163 152 163 159 165 165 164 172 163 179 166 186 167 193 170 195 174 197 177 200 183 199 189 197 195 193 197 193 200 194 203 194 210 195 217 191 224 193 229 195 234 195 239 195 240 198 241 201 242 204 240 203 238 201 236 199 231 195 224 196 219 197 221 198 224 199 227 200 228 201 228 203 229 205 230 202 230 200 231 198 233 199 234 201 235 203 233 204 230 206 227 206 224 204 220 203 216 202 214 200 212 197 210 195 211 197 212 199 213 201 210 202 207 203 204 204 204 204 206 205 206 205 205 206 203 206 201 206 202 204 203 202 203 199 201 201 199 204 197 204 194 205 192 205 189 205 190 206 190 206 191 207 188 208 185 208 181 209 181 208 181 207 181 206 186 203 192 201 198 198 191 197 182 200 178 206 173 207 168 208 163 207 160 207 156 206 153 205 152 199 156 194 159 189 153 189 150 194 146 198 146 197 146 195 146 194 147 189 151 186 153 182 153 182 154 182 154 181 156 178 158 174 157 170 157 159 158 148 157 138Z" fill="#b16a4e"/><path d="M290 127C287 127 280 129 279 124 280 125 281 125 283 125 285 126 288 126 290 127Z" fill="#643723"/><path d="M315 334C316 334 317 333 317 333 315 339 312 344 309 349 303 355 300 364 295 371 289 377 283 384 274 386 273 386 272 386 272 386 274 384 277 382 280 380 283 378 283 375 285 372 288 371 291 371 293 369 295 367 295 364 296 361 297 356 300 351 303 347 307 343 311 338 315 334Z" fill="#643723"/><path d="M123 132C122 136 123 141 118 143 119 139 121 136 123 132Z" fill="#483024"/><path d="M330 134C330 134 331 135 331 135 332 147 336 159 336 171 336 176 335 181 335 187 336 191 336 195 335 200 332 197 327 196 323 195 325 195 327 195 329 195 331 186 329 177 330 168 331 157 331 145 330 134Z" fill="#582e1b"/><path d="M155 144C155 142 156 140 157 138 158 148 157 159 157 170 158 174 156 178 154 181 153 176 152 171 153 166 154 163 155 160 155 157 156 153 154 149 155 144Z" fill="#2f1f10"/><path d="M128 151C131 148 134 145 136 142 136 145 135 148 134 151 137 148 139 145 141 142 141 146 141 150 141 154 136 154 135 160 133 164 133 161 133 159 132 156 131 154 130 153 128 151Z" fill="#442c1a"/><path d="M144 160C143 156 143 151 145 147 145 151 145 156 144 160Z" fill="#462d1e"/><path d="M146 198C150 194 153 189 159 189 156 194 152 199 153 205 156 206 160 207 163 207 163 208 162 209 162 210 165 211 168 211 170 211 168 211 165 212 163 212 164 213 166 213 167 214 164 215 160 217 156 217 153 218 151 217 148 218 146 216 145 214 145 211 144 205 144 199 146 194 146 195 146 197 146 198Z" fill="#9e5c41"/><path d="M210 195C212 197 214 200 216 202 220 203 224 204 227 206 220 206 213 204 206 205 206 205 204 204 204 204 207 203 210 202 213 201 212 199 211 197 210 195Z" fill="#2a1314"/><path d="M243 195C244 195 245 195 245 195 245 197 245 199 245 201 246 199 248 197 249 195 249 195 250 195 250 195 249 198 248 202 247 205 249 203 251 202 253 200 252 203 250 207 249 210 245 209 241 208 237 208 237 210 238 212 238 214 236 214 234 214 232 213 232 213 232 212 233 211 228 210 223 209 218 210 206 212 194 213 184 220 191 218 198 214 206 213 205 215 204 217 203 218 202 218 200 219 199 219 193 220 186 222 181 226 180 228 178 230 177 231 174 231 171 229 169 228 162 225 154 223 148 218 151 217 153 218 156 217 160 217 164 215 167 214 166 213 164 213 163 212 165 212 168 211 170 211 174 210 178 210 181 209 185 208 188 208 191 207 195 207 198 207 201 206 203 206 205 206 206 205 213 204 220 206 227 206 230 206 233 204 235 203 236 204 236 204 237 205 237 203 236 201 236 199 238 201 240 203 242 204 242 201 243 198 243 195Z" fill="#c47557"/><path d="M219 197C224 196 231 195 236 199 236 201 237 203 237 205 236 204 236 204 235 203 234 201 233 199 231 198 230 200 230 202 229 205 228 203 228 201 227 200 224 199 221 198 219 197Z" fill="#2f1a10"/><path d="M201 317C201 309 207 304 213 299 209 305 205 311 201 317Z" fill="#2f1a10"/><path d="M250 195C254 197 255 200 258 203 263 204 268 203 273 203 274 209 271 215 269 221 270 221 271 221 273 221 273 219 274 218 274 216 274 217 274 218 274 219 274 222 275 224 275 227 270 228 265 227 260 227 250 219 238 218 226 217 219 216 211 217 204 218L203 218C204 217 205 215 206 213 214 212 223 211 232 213 234 214 236 214 238 214 238 212 237 210 237 208 241 208 245 209 249 210 250 207 252 203 253 200 251 202 249 203 247 205 248 202 249 198 250 195Z" fill="#d78364"/><path d="M178 206C182 200 191 197 198 198 192 201 186 203 181 206 180 206 179 206 178 206Z" fill="#472a1e"/><path d="M304 198C313 199 322 196 331 199 326 202 321 201 316 201 312 200 308 199 304 198L304 198Z" fill="#7b4532"/><path d="M197 204C199 204 201 201 203 199 203 202 202 204 201 206 198 207 195 207 191 207 190 206 190 206 189 205 192 205 194 205 197 204Z" fill="#432316"/><path d="M314 219C321 218 327 218 333 219 333 220 333 221 333 222 330 223 327 223 325 223 326 225 326 227 327 229 323 233 320 239 314 239 313 239 313 239 312 239 313 235 316 231 319 227 317 227 315 228 313 228 311 228 308 228 306 227 307 226 309 224 312 222 315 222 319 223 322 223 320 221 317 220 314 219Z" fill="#432316"/><path d="M134 254C134 250 134 246 135 243 136 247 136 251 134 254Z" fill="#432316"/><path d="M293 199C300 200 308 202 316 201 311 202 306 202 302 203 303 203 303 203 304 204 300 204 296 202 293 199Z" fill="#603627"/><path d="M326 203C329 203 332 202 336 202 336 207 336 212 334 217 331 217 328 217 325 216 326 216 328 216 330 216 330 212 330 208 329 205 328 204 327 204 326 203Z" fill="#61331f"/><path d="M163 207C168 208 173 207 178 206 179 206 180 206 181 206 181 207 181 208 181 209 178 210 174 210 170 211 168 211 165 211 162 210 162 209 163 208 163 207Z" fill="#0f0706"/><path d="M284 215C289 211 296 207 303 209 302 210 300 210 299 211 292 212 285 216 280 221 279 218 282 217 284 215Z" fill="#1d0d0a"/><path d="M204 218C211 217 219 216 226 217 238 218 250 219 260 227L260 228C261 228 261 229 262 230 261 231 259 232 258 234 256 241 255 249 248 253 240 259 230 260 220 260 209 260 198 262 188 258 184 256 182 252 180 249 180 247 181 246 181 244L181 244C182 247 183 251 186 254 187 254 188 255 189 255 193 257 198 258 203 258 216 259 229 258 242 254 246 252 250 249 252 245 252 244 252 243 253 242 251 241 249 239 247 237 250 233 254 231 258 229 254 225 249 222 243 221 240 221 237 220 233 220 224 218 214 220 204 218Z" fill="#1d0d0a"/><path d="M120 209C125 211 128 214 129 219 126 218 123 216 120 214 119 212 120 210 120 209Z" fill="#b46a4f"/><path d="M218 210C223 209 228 210 233 211 232 212 232 213 232 213 223 211 214 212 206 213 198 214 191 218 184 220 194 213 206 212 218 210Z" fill="#45120a"/><path d="M308 211C311 211 314 210 317 211 319 212 321 214 322 216 321 216 320 216 319 216 315 214 312 212 308 211Z" fill="#663524"/><path d="M274 219C276 215 279 213 283 211 282 212 281 213 280 215 277 218 277 223 275 227 275 224 274 222 274 219Z" fill="#0e0100"/><path d="M184 241C182 238 182 235 184 232 184 235 184 238 184 241Z" fill="#0e0100"/><path d="M280 221C285 216 292 212 299 211 304 211 309 213 313 216 309 216 304 216 300 218 293 220 286 221 281 226 280 226 279 226 278 225 279 224 279 223 280 221Z" fill="#ee9370"/><path d="M114 213C116 214 118 216 119 217 120 220 119 224 119 227 119 234 120 241 122 247 124 252 129 256 130 261 131 263 133 266 135 268 133 264 133 260 131 257 129 253 125 250 124 246 121 237 123 227 122 218 125 219 128 220 130 223 132 227 134 231 136 236 139 242 138 249 139 256 140 260 140 265 141 269 141 273 143 277 143 282 142 285 138 285 135 284 133 282 131 279 130 276 126 268 122 260 119 251 117 245 115 238 113 232 111 228 108 223 110 218 110 216 112 214 114 213M134 254C136 251 136 247 135 243 134 246 134 250 134 254Z" fill="#b3694f"/><path d="M300 218C304 216 309 216 313 216 315 216 317 216 319 216 320 216 321 216 322 216 323 216 324 216 325 216 328 217 331 217 334 217 334 217 334 218 333 219 327 218 321 218 314 219 317 220 320 221 322 223 319 223 315 222 312 222 309 224 307 226 306 227 308 228 311 228 313 228 311 229 308 229 305 229 302 228 299 225 297 222 291 223 285 225 282 230 285 229 287 228 289 227 288 229 286 230 286 232 286 236 288 239 288 243 287 244 287 245 287 246 286 244 286 243 286 241 285 241 284 241 283 241 284 244 284 248 287 250 299 257 314 257 327 255 329 255 330 255 332 255 334 256 335 257 337 258 326 259 314 259 303 258 297 258 291 255 286 253 288 259 289 265 291 270 292 274 295 278 296 282 298 289 293 296 287 299 284 302 280 302 276 302 270 302 265 300 261 298 256 296 250 295 245 295 241 294 238 290 236 287 235 283 236 279 236 276 237 281 237 286 241 290 245 293 251 293 256 294 263 295 269 300 276 300 280 300 284 297 287 294 288 293 289 292 290 291 293 288 293 285 293 281 292 281 291 281 290 281 288 274 285 267 283 260 280 253 280 246 279 239 278 236 276 233 275 231 270 229 266 229 262 230 261 229 261 228 260 228 267 227 274 229 281 226 286 221 293 220 300 218Z" fill="#0e0604"/><path d="M199 219C200 219 202 218 203 218L204 218C214 220 224 218 233 220 231 220 229 220 227 220 226 222 226 224 225 226 225 224 225 222 224 221 224 224 222 227 219 228 220 226 220 223 221 220 218 221 216 223 213 224 211 222 209 221 207 220 206 220 205 220 204 220 202 220 201 219 199 219Z" fill="#734d3f"/><path d="M144 220C146 220 147 221 149 222 148 222 147 222 146 222 146 230 148 237 148 245 149 250 150 254 152 258 152 259 152 260 152 261 151 261 150 261 149 261 149 263 148 265 147 267 147 267 146 267 146 267 145 266 145 264 144 263 141 249 140 234 144 220Z" fill="#77422c"/><path d="M184 226C190 222 197 221 204 220 205 220 206 220 207 220 199 223 190 225 185 231 193 230 200 225 208 223 209 226 211 228 212 231 212 229 212 228 212 226 215 228 217 230 220 229 222 229 224 228 225 226 226 224 226 222 227 220 229 220 231 220 233 220 237 220 240 221 243 221 241 222 239 223 237 224 238 226 240 227 242 229 240 229 238 229 236 228 236 228 237 226 237 226 234 226 231 226 228 227 230 228 232 228 234 228 231 231 231 235 229 238 224 242 217 239 211 241 202 242 193 243 185 237 186 243 188 248 186 254 183 251 182 247 181 244 181 238 179 230 184 226M184 241C184 238 184 235 184 232 182 235 182 238 184 241Z" fill="#c6775a"/><path d="M213 224C216 223 218 221 221 220 220 223 220 226 219 228 222 227 224 224 224 221 225 222 225 224 225 226 224 228 222 229 220 229 217 230 215 228 212 226 212 228 212 229 212 231 211 228 209 226 208 223 200 225 193 230 185 231 190 225 199 223 207 220 209 221 211 222 213 224Z" fill="#0a0302"/><path d="M146 222C147 222 148 222 149 222 149 222 149 222 150 222 150 223 150 224 150 225 152 228 155 230 155 234 155 242 154 251 152 258 150 254 149 250 148 245 148 237 146 230 146 222Z" fill="#99593e"/><path d="M237 224C239 223 241 222 243 221 249 222 254 225 258 229 254 231 250 233 247 237 249 239 251 241 253 242 252 243 252 244 252 245 246 247 242 250 237 251 229 253 221 254 213 255 205 256 197 254 189 253 189 253 189 255 189 255 188 255 187 254 186 254 188 248 186 243 185 237 193 243 202 242 211 241 217 239 224 242 229 238 231 235 231 231 234 228 234 228 235 228 236 228 238 229 240 229 242 229 240 227 238 226 237 224Z" fill="#d17f61"/><path d="M282 230C285 225 291 223 297 222 299 225 302 228 305 229 308 229 311 229 313 228 315 228 317 227 319 227 316 231 313 235 312 239 313 239 313 239 314 239 318 239 322 238 326 239 327 239 328 240 328 241 329 246 328 251 327 255 314 257 299 257 287 250 287 248 288 245 288 243 288 239 286 236 286 232 286 230 288 229 289 227 287 228 285 229 282 230M294 232C295 235 298 234 300 234 304 234 308 236 311 234 305 232 299 232 294 232Z" fill="#a65f46"/><path d="M325 223C327 223 330 223 333 222 334 232 333 243 333 253 336 252 340 251 341 248 346 241 346 233 348 225 349 227 350 230 349 232 348 238 347 244 344 249 341 253 336 254 332 255 330 255 329 255 327 255 328 251 329 246 328 241 328 240 327 239 326 239 322 238 318 239 314 239 320 239 323 233 327 229 326 227 326 225 325 223Z" fill="#6c3825"/><path d="M150 225C150 224 150 223 150 222 152 224 154 225 156 227 156 227 155 227 154 227 157 231 163 234 163 240 164 250 165 259 167 268 167 276 166 285 168 293 169 300 178 303 180 311 183 319 182 329 179 337 178 335 178 333 177 330 176 332 175 334 174 336 174 332 175 328 173 325 167 315 163 304 161 293 161 288 157 285 156 280 155 274 153 267 152 261 152 260 152 259 152 258 154 251 155 242 155 234 155 230 152 228 150 225Z" fill="#b1694d"/><path d="M228 227C231 226 234 226 237 226 237 226 236 228 236 228 235 228 234 228 234 228 232 228 230 228 228 227Z" fill="#7b4739"/><path d="M154 227C155 227 156 227 156 227 161 230 164 233 169 236 172 238 177 238 179 242 176 244 172 246 170 250 169 256 169 262 167 268 165 259 164 250 163 240 163 234 157 231 154 227Z" fill="#c7795b"/><path d="M262 230C266 229 270 229 275 231 275 235 276 239 276 243 276 248 276 253 278 257 282 264 285 272 285 280 285 285 286 290 287 294 284 297 280 300 276 300 269 300 263 295 256 294 251 293 245 293 241 290 237 286 237 281 236 276 236 279 235 283 236 287 238 290 241 294 245 295 250 295 256 296 261 298 261 302 260 306 259 310 261 309 264 308 266 307 270 309 275 310 279 310 279 312 278 314 277 316 272 317 266 319 260 319 250 318 240 319 230 319 223 319 217 316 211 315 214 317 217 319 221 321 224 325 227 329 232 331 237 335 244 337 250 339 250 342 251 344 253 347 243 346 233 348 223 347 220 347 220 344 218 342 214 341 209 342 205 341 202 340 199 339 196 339 193 340 191 342 188 344 187 341 185 338 183 336 182 338 181 339 180 341 180 340 179 339 179 337 182 329 183 319 180 311 178 303 169 300 168 293 166 285 167 276 167 268 169 262 169 256 170 250 172 246 176 244 179 242 180 242 180 244 181 244 181 246 180 247 180 249 179 251 180 254 181 256 185 260 190 263 195 264 211 265 227 266 242 261 247 258 253 255 256 250 259 246 260 241 261 236 260 235 259 234 258 234 259 232 261 231 262 230M268 288C269 288 271 287 272 287 274 284 273 281 272 278 269 281 267 284 268 288M201 317C205 311 209 305 213 299 207 304 201 309 201 317Z" fill="#d58162"/><path d="M275 231C276 233 278 236 279 239 280 246 280 253 283 260 285 267 288 274 290 281 290 284 290 288 290 291 289 292 288 293 287 294 286 290 285 285 285 280 285 272 282 264 278 257 276 253 276 248 276 243 276 239 275 235 275 231Z" fill="#ab6046"/><path d="M294 232C299 232 305 232 311 234 308 236 304 234 300 234 298 234 295 235 294 232Z" fill="#7d462f"/><path d="M258 234C259 234 260 235 261 236 260 241 259 246 256 250 253 255 247 258 242 261 227 266 211 265 195 264 190 263 185 260 181 256 180 254 179 251 180 249 182 252 184 256 188 258 198 262 209 260 220 260 230 260 240 259 248 253 255 249 256 241 258 234Z" fill="#e58e6d"/><path d="M283 241C284 241 285 241 286 241 286 243 286 244 287 246 287 245 287 244 288 243 288 245 287 248 287 250 284 248 284 244 283 241Z" fill="#573327"/><path d="M237 251C242 250 246 247 252 245 250 249 246 252 242 254 229 258 216 259 203 258 198 258 193 257 189 255 189 255 189 253 189 253 197 254 205 256 213 255 221 254 229 253 237 251Z" fill="#e48b6b"/><path d="M286 253C291 255 297 258 303 258 310 259 316 259 323 259 321 262 317 264 317 268 317 274 317 280 316 286 313 288 311 291 310 294 308 297 304 296 301 294 297 292 297 286 296 282 295 278 292 274 291 270 289 265 288 259 286 253Z" fill="#cb7457"/><path d="M303 258C314 259 326 259 337 258 337 264 338 271 336 278 334 286 333 294 329 301 328 294 328 286 327 278 327 272 327 265 328 259 327 259 325 259 323 259 316 259 310 259 303 258Z" fill="#6f3a27"/><path d="M323 259C325 259 327 259 328 259 327 265 327 272 327 278 327 284 328 291 326 297 324 302 323 307 323 311 323 311 321 312 321 312 320 308 319 304 318 301 315 299 312 299 309 298 305 298 302 297 298 298 293 300 288 304 283 305 280 305 278 303 276 302 280 302 284 302 287 299 293 296 298 289 296 282 297 286 297 292 301 294 304 296 308 297 310 294 311 291 313 288 316 286 317 280 317 274 317 268 317 264 321 262 323 259Z" fill="#b46348"/><path d="M149 261C150 261 151 261 152 261 153 267 155 274 156 280 157 285 161 288 161 293 163 304 167 315 173 325 175 328 174 332 174 336 175 334 176 332 177 330 178 333 178 335 179 337 179 339 180 340 180 341 180 342 181 343 181 343L181 342C181 342 182 341 183 341L182 340C183 342 185 344 186 345 187 347 189 348 190 349 191 351 192 354 194 355 198 358 203 360 207 362 209 363 210 366 211 368 213 371 215 373 217 375 214 373 211 373 208 375 202 369 194 365 187 359 181 355 177 349 172 344 165 335 159 325 155 314 152 306 151 298 149 291 147 282 145 272 144 263 145 264 145 266 146 267 146 267 147 267 147 267 148 265 149 263 149 261Z" fill="#663d29"/><path d="M108 268C109 266 111 264 112 262 115 269 115 277 120 282 123 283 126 282 129 283 131 293 126 302 126 312 125 311 123 309 122 308 118 310 114 313 110 317 111 318 112 318 112 319 114 319 117 319 119 319 119 320 119 321 119 322 117 322 115 323 113 323 115 324 117 325 120 326 120 332 120 339 119 345 119 347 118 350 117 352 113 342 109 331 104 322 100 319 95 319 92 322 89 324 85 326 84 330 84 332 84 334 83 335 81 337 79 339 78 341 76 345 76 350 73 354 71 356 69 353 67 353 66 359 68 366 72 371 75 375 79 377 81 381 83 385 85 390 89 393 93 395 96 398 99 402 99 402 98 402 97 402 98 403 99 405 100 406 99 405 97 405 96 404 100 410 103 416 106 422 110 428 113 435 113 442 113 444 111 446 109 445 105 443 105 438 104 434 106 436 108 438 110 441 109 435 108 430 104 425 98 418 96 408 90 401 84 396 82 389 78 382 77 383 77 384 76 385 71 381 66 377 62 372 60 375 58 379 55 381 51 381 48 380 45 380 41 383 40 388 36 392 34 396 30 398 28 402 28 405 31 407 32 409 30 412 27 415 23 416 23 418 22 419 22 420 19 421 15 423 13 426 11 429 8 431 5 432 4 435 2 438 0 440L0 377C3 376 7 376 10 374 12 373 13 370 15 368 19 370 22 372 26 374 27 372 29 371 31 369 30 366 27 363 30 360 31 358 34 359 36 359 35 356 34 352 34 348 35 344 38 342 41 339 42 341 44 344 45 347 48 344 50 341 52 337 54 338 55 339 56 340 59 351 61 363 68 372 67 366 64 360 62 354 59 346 61 337 61 328 65 336 67 345 72 351 73 349 74 347 73 345 72 340 68 336 68 331 67 327 69 323 69 319 72 318 74 318 76 317 78 312 76 306 78 301 79 295 82 290 86 286 85 281 89 277 92 273 95 272 99 272 102 271 103 270 103 268 104 267 105 267 107 267 108 268M93 279C92 284 94 288 96 292 98 298 99 304 101 310 103 313 105 317 106 321 107 325 108 329 112 331 109 322 106 313 104 303 102 295 101 287 97 280 96 279 93 277 93 279Z" fill="#1d1d16"/><path d="M93 279C93 277 96 279 97 280 101 287 102 295 104 303 106 313 109 322 112 331 108 329 107 325 106 321 105 317 103 313 101 310 99 304 98 298 96 292 94 288 92 284 93 279Z" fill="#0d0d09"/><path d="M327 278C328 286 328 294 329 301 327 311 324 322 318 331 317 328 316 326 317 323 319 319 323 316 323 311 323 307 324 302 326 297 328 291 327 284 327 278Z" fill="#894630"/><path d="M268 288C267 284 269 281 272 278 273 281 274 284 272 287 271 287 269 288 268 288Z" fill="#f9c5a9"/><path d="M290 281C291 281 292 281 293 281 293 285 293 288 290 291 290 288 290 284 290 281Z" fill="#57281b"/><path d="M260 319C266 319 272 317 277 316 279 316 281 316 282 317 271 322 258 319 246 320 246 320 247 321 247 322 241 320 236 319 230 319 240 319 250 318 260 319Z" fill="#57281b"/><path d="M353 285C357 283 362 285 367 286 378 290 388 297 396 305 399 308 401 313 401 317 403 326 405 335 405 345 404 351 403 358 402 364 399 378 393 391 388 405 382 420 375 433 366 446L294 446C294 441 293 436 293 432 292 425 292 418 292 412 292 406 291 400 291 394 297 392 303 389 307 384 315 373 320 361 326 350 329 344 332 339 334 333 339 321 344 309 347 296 349 292 349 287 353 285Z" fill="#1b1a14"/><path d="M136 288C139 288 142 287 145 287 149 299 151 313 157 324 161 332 166 339 171 347 180 359 193 367 205 376 201 379 197 375 193 374 190 374 187 375 185 376 186 378 188 381 190 383 189 383 188 384 187 384 189 387 191 390 195 390 199 391 203 390 207 390 207 392 207 393 207 394 204 395 202 395 199 396 200 397 200 398 200 399 198 399 196 399 194 399 191 400 188 402 184 402 181 402 178 401 175 400 171 398 167 396 163 393 162 393 161 392 161 391 158 387 156 384 154 379 148 368 147 356 142 345 139 338 137 331 136 323 136 311 136 300 136 288Z" fill="#6a422d"/><path d="M402 294C405 297 409 301 413 303 421 308 431 308 438 314 441 318 441 322 443 326 444 325 445 324 446 323L446 388C443 380 440 373 437 366 433 357 431 347 426 339 421 330 417 321 410 313 407 309 404 307 401 303 399 300 401 297 402 294Z" fill="#0c0c07"/><path d="M298 298C302 297 305 298 309 298 312 299 315 299 318 301 319 304 320 308 321 312 321 312 323 311 323 311 323 316 319 319 317 323 316 326 317 328 318 331 318 331 317 332 317 333 317 333 316 334 315 334 315 328 315 321 314 314 311 314 308 315 305 317 308 318 310 319 312 320 312 324 313 328 311 332 306 340 298 345 292 353 290 356 287 357 284 358 286 355 288 353 291 351 284 346 275 347 268 348 264 348 260 348 257 347 254 345 252 341 250 339 244 337 237 335 232 331 227 329 224 325 221 321 231 322 241 322 250 325 262 327 274 324 286 321 286 324 287 326 287 329 284 333 280 335 276 338 284 336 291 331 294 323 294 322 295 321 296 319 298 317 299 313 300 310 297 313 294 316 290 317 276 322 261 325 247 322 247 321 246 320 246 320 258 319 271 322 282 317 281 316 279 316 277 316 278 314 279 312 279 310 275 310 270 309 266 307 264 308 261 309 259 310 260 306 261 302 261 298 265 300 270 302 276 302 278 303 280 305 283 305 288 304 293 300 298 298M246 328C247 331 249 334 252 335 253 336 255 335 256 335 254 331 251 327 246 328Z" fill="#ac5b42"/><path d="M335 305C336 303 338 301 340 299 340 300 341 302 340 304 338 313 333 320 331 328 330 332 327 336 325 340 320 352 313 364 307 375 302 385 291 392 280 390 285 387 291 386 295 382 302 375 306 366 312 358 318 347 324 337 328 326 331 319 333 312 335 305Z" fill="#181813"/><path d="M135 358C131 340 127 321 132 303 132 313 132 323 135 332 137 340 137 349 139 357 141 367 144 377 149 386 150 393 152 400 153 406 151 402 148 397 147 393 142 381 137 370 135 358Z" fill="#44aac1"/><path d="M396 305C412 319 421 338 429 357 432 366 434 376 438 385 441 392 442 399 446 406L446 446 366 446C375 433 382 420 388 405 393 391 399 378 402 364 403 358 404 351 405 345 405 335 403 326 401 317 401 313 399 308 396 305Z" fill="#11110c"/><path d="M110 317C114 313 118 310 122 308 123 309 125 311 126 312 125 321 126 331 127 340 129 349 129 358 132 367 134 372 136 377 137 382 139 389 138 397 139 404 141 399 138 392 140 386 144 396 147 406 153 415 159 425 161 436 166 446L124 446C121 435 118 425 111 416 108 410 103 407 99 402 96 398 93 395 89 393 85 390 83 385 81 381 79 377 75 375 72 371 68 366 66 359 67 353 69 353 71 356 73 354 76 350 76 345 78 341 79 339 81 337 83 335 84 334 84 332 84 330 85 326 89 324 92 322 95 319 100 319 104 322 109 331 113 342 117 352 118 350 119 347 119 345 120 339 120 332 120 326 117 325 115 324 113 323 115 323 117 322 119 322 119 321 119 320 119 319 117 319 114 319 112 319 112 318 111 318 110 317Z" fill="#24231c"/><path d="M290 317C294 316 297 313 300 310 299 313 298 317 296 319 292 320 289 321 286 321 274 324 262 327 250 325 241 322 231 322 221 321 217 319 214 317 211 315 217 316 223 319 230 319 236 319 241 320 247 322 261 325 276 322 290 317Z" fill="#110403"/><path d="M305 317C308 315 311 314 314 314 315 321 315 328 315 334 311 338 307 343 303 347 300 351 297 356 296 361 295 364 295 367 293 369 291 371 288 371 285 372 283 375 283 378 280 380 277 382 274 384 272 386 264 386 256 383 247 383 243 384 239 384 235 384 237 381 240 378 239 374 234 375 230 375 226 375 226 374 225 373 225 372 228 372 230 373 232 373 233 370 233 368 233 366 238 366 242 369 247 370 252 370 254 364 254 359 256 361 258 364 259 366 264 360 268 354 274 350 272 349 270 349 268 348 275 347 284 346 291 351 288 353 286 355 284 358 287 357 290 356 292 353 298 345 306 340 311 332 313 328 312 324 312 320 310 319 308 318 305 317Z" fill="#b5644a"/><path d="M286 321C289 321 292 320 296 319 295 321 294 322 294 323 294 322 294 321 294 321 291 323 289 326 287 329 287 326 286 324 286 321Z" fill="#783d2d"/><path d="M287 329C289 326 291 323 294 321 294 321 294 322 294 323 291 331 284 336 276 338 280 335 284 333 287 329Z" fill="#100604"/><path d="M246 328C251 327 254 331 256 335 255 335 253 336 252 335 249 334 247 331 246 328Z" fill="#ca7559"/><path d="M183 336C185 338 187 341 188 344 188 344 187 345 186 345 185 344 183 342 182 340L183 341C182 341 181 342 181 342L181 343C181 343 180 342 180 341 181 339 182 338 183 336Z" fill="#9c6048"/><path d="M196 339C199 339 202 340 205 341 209 342 214 341 218 342 220 344 220 347 223 347 233 348 243 346 253 347 251 344 250 342 250 339 252 341 254 345 257 347 260 348 264 348 268 348 270 349 272 349 274 350 268 354 264 360 259 366 258 364 256 361 254 359 254 364 252 370 247 370 242 369 238 366 233 366 233 368 233 370 232 373 230 373 228 372 225 372 225 370 224 368 224 367 224 367 224 368 224 369 223 369 223 371 223 371 221 370 220 369 218 368 216 365 215 360 212 357 209 355 206 355 202 354 200 353 198 351 196 349 194 349 192 349 190 349 189 348 187 347 186 345 187 345 188 344 188 344 191 342 193 340 196 339Z" fill="#cb7a5b"/><path d="M139 345C143 351 144 359 146 366 149 376 153 385 161 391 161 392 162 393 163 393 173 404 187 410 201 413 216 415 232 413 245 405 249 403 252 400 256 398 258 398 259 397 261 397 252 405 242 412 231 415 219 417 206 417 194 415 188 414 183 411 177 409 161 401 149 386 144 368 141 361 139 353 139 345Z" fill="#1888a7"/><path d="M190 349C192 349 194 349 196 349 198 351 200 353 202 354 206 355 209 355 212 357 215 360 216 365 218 368 220 369 221 370 223 371 222 373 222 374 220 375 219 375 218 375 217 375 215 373 213 371 211 368 210 366 209 363 207 362 203 360 198 358 194 355 192 354 191 351 190 349Z" fill="#aa684b"/><path d="M224 367C224 368 225 370 225 372 225 373 226 374 226 375 230 375 234 375 239 374 240 378 237 381 235 384 239 384 243 384 247 383 256 383 264 386 272 386 272 386 273 386 274 386 265 388 256 388 247 388 243 387 239 387 235 386 232 385 229 381 227 379 229 378 230 377 232 376 229 376 226 376 224 376 224 374 224 371 224 369 224 368 224 367 224 367Z" fill="#985841"/><path d="M224 369C224 371 224 374 224 376 226 376 229 376 232 376 230 377 229 378 227 379 229 381 232 385 235 386 239 387 243 387 247 388 241 388 234 390 228 387 224 386 221 384 217 382 214 380 211 377 208 375 211 373 214 373 217 375 218 375 219 375 220 375 222 374 222 373 223 371 223 371 223 369 224 369Z" fill="#503927"/><path d="M55 381C58 379 60 375 62 372 66 377 71 381 76 385 77 384 77 383 78 382 82 389 84 396 90 401 96 408 98 418 104 425 108 430 109 435 110 441 108 438 106 436 104 434 105 438 105 443 109 445 111 446 113 444 113 442 113 435 110 428 106 422 103 416 100 410 96 404 97 405 99 405 100 406 111 417 118 431 122 446L90 446C87 440 86 434 83 428 80 422 77 416 73 411 74 419 79 425 82 433 84 437 85 442 87 446L0 446 0 440C2 438 4 435 5 432 8 431 11 429 13 426 15 423 19 421 22 420 22 419 23 418 23 416 27 415 30 412 32 409 31 407 28 405 28 402 30 398 34 396 36 392 40 388 41 383 45 380 48 380 51 381 55 381Z" fill="#23231c"/><path d="M185 376C187 375 190 374 193 374 197 375 201 379 205 376 209 379 213 382 217 385 223 389 230 392 237 394 233 396 228 397 224 397 229 398 233 398 238 398 238 401 237 404 235 407 228 409 221 410 213 411 205 412 198 410 190 408 184 407 179 404 175 400 178 401 181 402 184 402 188 402 191 400 194 399 196 399 198 399 200 399 200 398 200 397 199 396 202 395 204 395 207 394 207 393 207 392 207 390 203 390 199 391 195 390 191 390 189 387 187 384 188 384 189 383 190 383 188 381 186 378 185 376Z" fill="#5b3d2b"/><path d="M149 386C153 391 156 397 162 401 167 405 171 409 177 412 177 411 177 410 177 409 183 411 188 414 194 415 206 417 219 417 231 415 227 416 224 418 221 420 228 420 236 417 243 414 250 411 256 405 262 400 264 398 267 397 270 397 264 412 248 421 233 426 218 432 202 432 187 427 177 424 168 418 161 411 166 420 176 425 185 429 184 430 183 431 182 432 185 434 188 438 192 435L193 435C192 439 190 443 188 446L168 446C166 439 164 433 162 426 159 420 155 413 153 406 152 400 150 393 149 386Z" fill="#1e778d"/><path d="M237 394C242 395 247 395 251 396 247 400 241 404 235 407 237 404 238 401 238 398 233 398 229 398 224 397 228 397 233 396 237 394Z" fill="#1f1d19"/><path d="M256 398C258 397 261 396 263 396 268 396 274 396 279 396 276 397 273 397 271 400 268 407 267 414 264 421 268 423 271 426 275 428 275 429 274 429 274 429 270 427 265 425 261 425 260 427 259 430 262 431 265 432 268 431 272 431 274 431 277 431 279 431 275 432 272 433 268 434 265 435 261 434 258 434 256 436 255 439 253 441 254 435 255 429 258 424 261 420 263 416 264 411 256 418 246 424 236 428 230 430 225 431 219 432 208 432 196 432 185 429 176 425 166 420 161 411 168 418 177 424 187 427 202 432 218 432 233 426 248 421 264 412 270 397 267 397 264 398 262 400 256 405 250 411 243 414 236 417 228 420 221 420 224 418 227 416 231 415 242 412 252 405 261 397 259 397 258 398 256 398Z" fill="#040e14"/><path d="M279 396C281 396 282 396 284 396 284 397 284 398 284 399 283 411 284 424 282 436 281 435 280 433 279 431 277 431 274 431 272 431 272 430 273 430 274 429 274 429 275 429 275 428 271 426 268 423 264 421 267 414 268 407 271 400 273 397 276 397 279 396Z" fill="#1f788d"/><path d="M287 417C287 410 285 403 287 397 288 400 289 403 289 406 289 414 289 422 289 430 288 426 288 421 287 417Z" fill="#398492"/><path d="M282 436C284 424 283 411 284 399 284 404 285 409 285 414 286 425 284 435 284 446L244 446C245 440 246 435 247 430 243 429 240 428 236 428 246 424 256 418 264 411 263 416 261 420 258 424 255 429 254 435 253 441 255 439 256 436 258 434 261 434 265 435 268 434 272 433 275 432 279 431 280 433 281 435 282 436Z" fill="#145c70"/><path d="M97 402C98 402 99 402 99 402 103 407 108 410 111 416 118 425 121 435 124 446L122 446C118 431 111 417 100 406 99 405 98 403 97 402Z" fill="#080806"/><path d="M289 406C290 413 290 421 290 429 290 433 290 437 289 441 288 439 288 438 287 436 287 439 286 442 286 445 286 436 287 426 287 417 288 421 288 426 289 430 289 422 289 414 289 406Z" fill="#164f56"/><path d="M73 411C77 416 80 422 83 428 86 434 87 440 90 446L87 446C85 442 84 437 82 433 79 425 74 419 73 411Z" fill="#0b0b08"/><path d="M261 425C265 425 270 427 274 429 273 430 272 430 272 431 268 431 265 432 262 431 259 430 260 427 261 425Z" fill="#89b7b4"/><path d="M219 432C225 431 230 430 236 428 240 428 243 429 247 430 246 435 245 440 244 446L188 446C190 443 192 439 193 435 197 435 202 435 206 435 202 433 196 431 192 435 188 438 185 434 182 432 183 431 184 430 185 429 196 432 208 432 219 432Z" fill="#166479"/><path d="M192 435C196 431 202 433 206 435 202 435 197 435 193 435L192 435Z" fill="#12414f"/><path d="M287 436C288 438 288 439 289 441 289 443 289 444 289 446L286 446 286 445C286 442 287 439 287 436Z" fill="#2e7487"/></svg>